<?xml version="1.0" encoding="utf-8"?>
<!-- Generator: Adobe Illustrator 26.0.2, SVG Export Plug-In . SVG Version: 6.00 Build 0)  -->
<svg version="1.1" id="レイヤー_1" xmlns="http://www.w3.org/2000/svg" xmlns:xlink="http://www.w3.org/1999/xlink" x="0px"
	 y="0px" viewBox="0 0 400 400" style="enable-background:new 0 0 400 400;" xml:space="preserve">
<style type="text/css">
	.st0{display:none;}
	.st1{fill:#FFFFFF;stroke:#000000;stroke-miterlimit:10;}
	.st2{fill:#FFFFFF;}
</style>
<g id="base_circle" class="st0">
</g>
<rect x="202.52" y="1" class="st1" width="197.48" height="399"/>
<g id="nyoro">
	<rect y="1" width="202.52" height="399"/>
	<path class="st1" d="M84.51-0.5"/>
	<g>
		<path class="st2" d="M180.21,242.5l27.54-88.83l-1.4-53.54h-37.62c-1.51,8.77-4.23,17.83-9.67,32.65L93.75,314.75
			c-7.25,20.55-9.97,27.81-14.51,36.88h70.73c1.51-11.18,3.63-20.55,7.56-32.65l8.16-25.69h45.71l-1.33-50.78h-29.86V242.5z"/>
	</g>
	<g>
		<path d="M202.32,100.58h-12.96c-2.06,0-3.7,1.72-3.61,3.78c0,0,2.29,49.68,2.52,50.13l12.17,24.53c0.58,1.16,1.73,1.95,3.03,2
			c12.09,0.46,14.27,5.31,14.27,20.22v39.63c0,2-1.62,3.62-3.62,3.62h-23.45c-2.02,0-3.65,1.66-3.62,3.68l0.7,41.13
			c0.03,1.97,1.64,3.56,3.62,3.56h22.75c2,0,3.62,1.62,3.62,3.62v51.7c0,2,1.62,3.62,3.62,3.62h78.31c2,0,3.62-1.62,3.62-3.62
			V201.24C303.28,126.28,282.12,100.58,202.32,100.58z"/>
	</g>
</g>
</svg>
